<?xml version="1.0" encoding="UTF-8" standalone="no"?>
<!-- Created with Inkscape (http://www.inkscape.org/) -->

<svg
   xmlns:dc="http://purl.org/dc/elements/1.1/"
   xmlns:cc="http://creativecommons.org/ns#"
   xmlns:rdf="http://www.w3.org/1999/02/22-rdf-syntax-ns#"
   xmlns:svg="http://www.w3.org/2000/svg"
   xmlns="http://www.w3.org/2000/svg"
   xmlns:sodipodi="http://sodipodi.sourceforge.net/DTD/sodipodi-0.dtd"
   xmlns:inkscape="http://www.inkscape.org/namespaces/inkscape"
   width="106.11356"
   height="118.38413"
   id="svg2"
   version="1.1"
   inkscape:version="0.92.2 (5c3e80d, 2017-08-06)"
   sodipodi:docname="beaker-icon.svg"
   inkscape:export-filename="/home/rlerch/Desktop/publican-beaker/en-US/images/title_logo.png"
   inkscape:export-xdpi="90"
   inkscape:export-ydpi="90">
  <defs
     id="defs4">
    <inkscape:perspective
       id="perspective10"
       inkscape:persp3d-origin="372.04724 : 350.78739 : 1"
       inkscape:vp_z="744.09448 : 526.18109 : 1"
       inkscape:vp_y="0 : 1000 : 0"
       inkscape:vp_x="0 : 526.18109 : 1"
       sodipodi:type="inkscape:persp3d" />
  </defs>
  <sodipodi:namedview
     id="base"
     pagecolor="#ffffff"
     bordercolor="#666666"
     borderopacity="1.0"
     inkscape:pageopacity="0.0"
     inkscape:pageshadow="2"
     inkscape:zoom="1.979899"
     inkscape:cx="237.95722"
     inkscape:cy="51.436826"
     inkscape:document-units="px"
     inkscape:current-layer="g3258"
     showgrid="false"
     fit-margin-top="0"
     fit-margin-left="0"
     fit-margin-right="0"
     fit-margin-bottom="0"
     inkscape:window-width="1912"
     inkscape:window-height="2103"
     inkscape:window-x="0"
     inkscape:window-y="49"
     inkscape:window-maximized="0" />
  <metadata
     id="metadata7">
    <rdf:RDF>
      <cc:Work
         rdf:about="">
        <dc:format>image/svg+xml</dc:format>
        <dc:type
           rdf:resource="http://purl.org/dc/dcmitype/StillImage" />
        <dc:title></dc:title>
      </cc:Work>
    </rdf:RDF>
  </metadata>
  <g
     inkscape:label="Layer 1"
     inkscape:groupmode="layer"
     id="layer1"
     transform="translate(129.27143,-1.8685189)">
    <path
       style="display:inline;overflow:visible;visibility:visible;fill:#3c6eb4;fill-opacity:1;fill-rule:nonzero;stroke:none;stroke-width:2.37630272;marker:none;enable-background:accumulate"
       d="m -129.27143,1.8685189 h 106.113559 c -6.184946,3.5708702 -6.969316,10.8494861 -6.969316,17.9853331 v 84.886428 c 0,8.59385 -6.918534,15.51237 -15.512362,15.51237 h -61.150211 c -8.59385,0 -15.51236,-6.91852 -15.51236,-15.51237 V 19.853852 c 0,-7.681613 -0.38966,-14.1865754 -6.96931,-17.9853331 z"
       id="rect3176"
       sodipodi:nodetypes="ccccccccc"
       inkscape:connector-curvature="0" />
    <path
       style="fill:#ffffff;fill-opacity:1;fill-rule:evenodd;stroke:none;stroke-width:2.37630272"
       d="m -122.29649,21.561914 v 7.128909 h 40.100113 c 1.285461,0.01901 2.470856,-0.6719 3.118897,-1.782227 0.648042,-1.110351 0.648042,-2.454127 0,-3.564454 -0.648041,-1.110304 -1.833436,-1.800406 -3.118897,-1.782228 z m 0,19.307461 v 7.128908 h 16.93116 c 1.28546,0.01901 2.47086,-0.671899 3.1189,-1.782227 0.64804,-1.110351 0.64804,-2.454127 0,-3.564454 -0.64804,-1.110304 -1.83344,-1.800406 -3.1189,-1.782227 z m 0,19.30746 v 7.128908 h 16.93116 c 1.28546,0.01901 2.47086,-0.671899 3.1189,-1.782227 0.64804,-1.110351 0.64804,-2.454126 0,-3.564454 -0.64804,-1.110304 -1.83344,-1.800406 -3.1189,-1.782227 z m 0,19.30746 v 7.128909 h 16.93116 c 1.28546,0.01901 2.47086,-0.6719 3.1189,-1.782227 0.64804,-1.110352 0.64804,-2.454127 0,-3.564455 -0.64804,-1.110303 -1.83344,-1.800405 -3.1189,-1.782227 z m 0,19.38172 v 5.866495 c 0,0.41531 0.0425,0.85554 0.0741,1.26241 h 16.8569 c 1.28546,0.019 2.47086,-0.6719 3.1189,-1.78222 0.64804,-1.11035 0.64804,-2.45413 0,-3.56446 -0.64804,-1.110302 -1.83344,-1.800404 -3.1189,-1.782225 h -16.93116 z"
       id="path3224"
       inkscape:connector-curvature="0" />
    <g
       id="g3258"
       transform="matrix(2.3763028,0,0,2.3763028,-398.17039,-556.60678)">
      <path
         id="text3165"
         d="m 129.35049,247.19384 c 0,-0.86396 0.32,-1.72796 0.96,-2.592 0.64,-0.86396 1.36,-1.29596 2.16,-1.296 h 12.144 c 2.20798,4e-5 4.11198,0.94404 5.712,2.832 1.63198,1.85604 2.44798,3.93603 2.448,6.24 -2e-5,2.91203 -1.31202,5.16803 -3.936,6.768 2.27198,0.32002 4.01598,1.34402 5.232,3.072 1.08797,1.53602 1.63197,3.42402 1.632,5.664 -3e-5,2.84801 -0.80003,5.34401 -2.4,7.488 -1.79202,2.36801 -4.03202,3.552 -6.72,3.552 h -14.112 c -0.8,0 -1.52,-0.256 -2.16,-0.768 -0.64,-0.51199 -0.96,-1.15199 -0.96,-1.92 v -29.04 m 14.112,17.568 h -5.904 v 7.104 h 5.856 c 1.34398,1e-5 2.41598,-0.36799 3.216,-1.104 0.70398,-0.70399 1.05598,-1.53599 1.056,-2.496 -2e-5,-0.95998 -0.36802,-1.77598 -1.104,-2.448 -0.73602,-0.70398 -1.77602,-1.05598 -3.12,-1.056 m -1.2,-13.68 h -4.704 v 6.336 h 5.088 c 1.31199,3e-5 1.96798,-0.99197 1.968,-2.976 -2e-5,-0.89597 -0.20802,-1.67997 -0.624,-2.352 -0.41601,-0.67197 -0.99201,-1.00797 -1.728,-1.008"
         style="font-style:normal;font-variant:normal;font-weight:bold;font-stretch:normal;font-size:48px;line-height:100%;font-family:'MgOpen Modata';-inkscape-font-specification:'MgOpen Modata Bold';text-align:start;writing-mode:lr-tb;text-anchor:start;display:inline;overflow:visible;visibility:visible;fill:#ffffff;fill-opacity:1;fill-rule:nonzero;stroke:none;stroke-width:1;marker:none;enable-background:accumulate"
         inkscape:connector-curvature="0" />
    </g>
  </g>
</svg>
