<?xml version="1.0" encoding="UTF-8" standalone="no"?>
<!-- Created with Inkscape (http://www.inkscape.org/) -->
<svg
   xmlns:svg="http://www.w3.org/2000/svg"
   xmlns="http://www.w3.org/2000/svg"
   xmlns:xlink="http://www.w3.org/1999/xlink"
   xmlns:inkscape="http://www.inkscape.org/namespaces/inkscape"
   version="1.0"
   width="363"
   height="318"
   id="svg2"
   style="enable-background:new">
  <defs
     id="defs5">
    <linearGradient
       id="linearGradient6430">
      <stop
         id="stop6432"
         style="stop-color:#ce0000;stop-opacity:1"
         offset="0" />
      <stop
         id="stop6434"
         style="stop-color:#e90000;stop-opacity:1"
         offset="1" />
    </linearGradient>
    <linearGradient
       id="linearGradient3218">
      <stop
         id="stop3220"
         style="stop-color:#000000;stop-opacity:1"
         offset="0" />
      <stop
         id="stop3222"
         style="stop-color:#555753;stop-opacity:1"
         offset="1" />
    </linearGradient>
    <linearGradient
       id="linearGradient3210">
      <stop
         id="stop3212"
         style="stop-color:#edd400;stop-opacity:1"
         offset="0" />
      <stop
         id="stop3214"
         style="stop-color:#fce94f;stop-opacity:1"
         offset="1" />
    </linearGradient>
    <linearGradient
       id="linearGradient3558">
      <stop
         id="stop3560"
         style="stop-color:#4bc6ff;stop-opacity:1"
         offset="0" />
      <stop
         id="stop3562"
         style="stop-color:#1fb7ff;stop-opacity:0"
         offset="1" />
    </linearGradient>
    <linearGradient
       id="linearGradient2652">
      <stop
         id="stop2654"
         style="stop-color:#ef5d29;stop-opacity:1"
         offset="0" />
      <stop
         id="stop2656"
         style="stop-color:#ef2929;stop-opacity:0"
         offset="1" />
    </linearGradient>
    <linearGradient
       id="linearGradient3770">
      <stop
         id="stop3772"
         style="stop-color:#999999;stop-opacity:0"
         offset="0" />
      <stop
         id="stop3774"
         style="stop-color:#cccccc;stop-opacity:1"
         offset="0.28968501" />
      <stop
         id="stop3776"
         style="stop-color:#cccccc;stop-opacity:1"
         offset="0.72421253" />
      <stop
         id="stop3778"
         style="stop-color:#999999;stop-opacity:0"
         offset="1" />
    </linearGradient>
    <linearGradient
       id="linearGradient3578">
      <stop
         id="stop3580"
         style="stop-color:#999999;stop-opacity:1"
         offset="0" />
      <stop
         id="stop3582"
         style="stop-color:#ffffff;stop-opacity:1"
         offset="1" />
    </linearGradient>
    <linearGradient
       x1="292.98209"
       y1="248.94519"
       x2="292.71686"
       y2="254.84595"
       id="linearGradient3605"
       xlink:href="#linearGradient3578"
       gradientUnits="userSpaceOnUse" />
    <linearGradient
       x1="579.61249"
       y1="-2053.46"
       x2="633.25787"
       y2="-2073.55"
       id="linearGradient3607"
       xlink:href="#linearGradient3770"
       gradientUnits="userSpaceOnUse"
       gradientTransform="matrix(0.8697037,0.5377184,-5.0885591e-2,2.0041935,-132.86485,4079.057)" />
    <linearGradient
       x1="579.61249"
       y1="-2053.46"
       x2="633.25787"
       y2="-2073.55"
       id="linearGradient3609"
       xlink:href="#linearGradient3770"
       gradientUnits="userSpaceOnUse"
       gradientTransform="matrix(0.8697037,0.5377184,-5.0885591e-2,2.0041935,-132.86485,4082.0622)" />
    <linearGradient
       x1="579.61249"
       y1="-2053.46"
       x2="633.25787"
       y2="-2073.55"
       id="linearGradient3611"
       xlink:href="#linearGradient3770"
       gradientUnits="userSpaceOnUse"
       gradientTransform="matrix(0.8697037,0.5377184,-5.0885591e-2,2.0041935,-132.86485,4085.0674)" />
    <linearGradient
       x1="579.61249"
       y1="-2053.46"
       x2="633.25787"
       y2="-2073.55"
       id="linearGradient3613"
       xlink:href="#linearGradient3770"
       gradientUnits="userSpaceOnUse"
       gradientTransform="matrix(0.8697037,0.5377184,-5.0885591e-2,2.0041935,-132.86485,4088.0726)" />
    <radialGradient
       cx="308.00009"
       cy="237.60178"
       r="13.826746"
       fx="308.00009"
       fy="237.60178"
       id="radialGradient3615"
       xlink:href="#linearGradient2652"
       gradientUnits="userSpaceOnUse"
       gradientTransform="matrix(-2.470026,1.2123383,-2.5289897,-1.8798194,1652.7116,307.88628)" />
    <radialGradient
       cx="313.97348"
       cy="257.40872"
       r="4.0046649"
       fx="313.97348"
       fy="257.40872"
       id="radialGradient3617"
       xlink:href="#linearGradient3558"
       gradientUnits="userSpaceOnUse"
       gradientTransform="matrix(-1.2239386,0.8005673,-1.1669368,-1.1126277,983.68752,289.08822)" />
    <linearGradient
       x1="121.62237"
       y1="166.88406"
       x2="121.62236"
       y2="63.590191"
       id="linearGradient3216"
       xlink:href="#linearGradient3210"
       gradientUnits="userSpaceOnUse"
       gradientTransform="matrix(0.9919329,0,0,0.9919329,1.4358062,0.4522511)" />
    <linearGradient
       x1="282.13562"
       y1="198.85522"
       x2="282.13562"
       y2="220.4299"
       id="linearGradient3224"
       xlink:href="#linearGradient3218"
       gradientUnits="userSpaceOnUse" />
    <linearGradient
       x1="282.13562"
       y1="198.85522"
       x2="282.13562"
       y2="220.4299"
       id="linearGradient6356"
       xlink:href="#linearGradient3218"
       gradientUnits="userSpaceOnUse"
       gradientTransform="translate(0,3.1983471)" />
    <filter
       id="filter6426">
      <feGaussianBlur
         id="feGaussianBlur6428"
         stdDeviation="1.3718847"
         inkscape:collect="always" />
    </filter>
    <linearGradient
       x1="313.12421"
       y1="234.06723"
       x2="300.74551"
       y2="252.48558"
       id="linearGradient6436"
       xlink:href="#linearGradient6430"
       gradientUnits="userSpaceOnUse" />
    <filter
       height="1.2099621"
       y="-0.10498104"
       width="1.0989299"
       x="-0.049464952"
       id="filter6542">
      <feGaussianBlur
         id="feGaussianBlur6544"
         stdDeviation="2.6872547"
         inkscape:collect="always" />
    </filter>
    <filter
       id="filter6596">
      <feGaussianBlur
         id="feGaussianBlur6598"
         stdDeviation="1.7274814"
         inkscape:collect="always" />
    </filter>
    <linearGradient
       x1="180"
       y1="163.62605"
       x2="180"
       y2="66.188019"
       id="linearGradient6600"
       xlink:href="#linearGradient3218"
       gradientUnits="userSpaceOnUse" />
    <filter
       id="filter6626">
      <feBlend
         id="feBlend6628"
         in2="BackgroundImage"
         mode="multiply"
         inkscape:collect="always" />
    </filter>
  </defs>
  <path
     d="M 192.86534,56.061481 C 192.36173,56.001958 177.04791,71.601258 169.88288,78.655471 C 176.27757,76.632509 187.258,72.858149 188.75784,73.035772 C 190.25845,73.213382 198.81453,79.323493 203.90158,82.70395 C 200.45634,74.408167 193.36963,56.121106 192.86534,56.061481 z M 256.56564,75.679414 C 256.19703,75.470177 226.37543,82.344843 212.67149,85.374045 C 220.32408,85.916589 233.75821,86.605813 234.85605,87.228257 C 235.95576,87.851868 236.78146,95.293021 237.53092,99.511345 C 243.45051,92.092902 256.93475,75.888665 256.56564,75.679414 z M 125.42293,59.592937 C 124.97638,59.705437 130.08281,78.06997 132.18928,86.449319 C 134.88117,82.633972 139.1244,75.81667 140.45346,75.481547 C 141.78428,75.14601 154.86419,77.615692 162.3432,78.86324 C 150.84856,72.862022 125.86977,59.480312 125.42293,59.592937 z M 290.22827,111.27313 C 290.13546,110.99458 257.1852,106.5389 242.18642,104.38604 C 248.17919,107.28669 258.97529,112.18749 259.25143,113.01669 C 259.52792,113.84738 252.26311,119.75777 248.38968,123.20613 C 261.40772,119.49699 290.32106,111.5521 290.22827,111.27313 z M 125.48113,90.005528 C 110.30347,88.587271 77.076206,85.20923 76.857612,85.45104 C 76.63901,85.692911 100.20589,99.814697 110.77468,106.3235 C 108.73772,102.17566 104.66761,94.929258 105.31915,94.208612 C 105.96936,93.48931 118.45677,91.365927 125.48113,90.005528 z M 247.14367,128.41486 C 249.1807,132.56293 253.25058,139.80912 252.59919,140.52974 C 251.94886,141.24904 239.46162,143.37243 232.43729,144.7328 C 247.61504,146.15105 280.8422,149.52911 281.06077,149.2873 C 281.27943,149.04544 257.71247,134.92365 247.14367,128.41486 z M 107.57689,111.87714 C 94.559095,115.58622 65.645568,123.53114 65.738468,123.81028 C 65.83118,124.08875 98.781509,128.54433 113.78023,130.6972 C 107.78763,127.79653 96.991334,122.89566 96.715376,122.06653 C 96.438807,121.23574 103.70368,115.32544 107.57689,111.87714 z M 225.72916,148.289 C 223.03722,152.10435 218.79412,158.92166 217.46494,159.2568 C 216.13407,159.59235 203.05422,157.12265 195.57518,155.87511 C 207.06981,161.87632 232.0487,175.2581 232.49567,175.14539 C 232.94189,175.03294 227.83555,156.66839 225.72916,148.289 z M 118.43579,135.57189 C 112.51623,142.99034 99.032017,159.19458 99.401191,159.40382 C 99.769581,159.61299 129.59124,152.73839 143.29535,149.70918 C 135.64251,149.16662 122.20862,148.4774 121.11055,147.85492 C 120.01096,147.23135 119.18522,139.79024 118.43579,135.57189 z M 186.08383,156.42778 C 179.68914,158.45076 168.70875,162.2251 167.2089,162.04747 C 165.70846,161.86983 157.15205,155.75978 152.06515,152.37921 C 155.51037,160.67499 162.59724,178.96218 163.10148,179.02172 C 163.6049,179.08114 178.91889,163.48205 186.08383,156.42778 z"
     transform="matrix(1,0,0,1.0406634,0,-1.2796452)"
     id="path6546"
     style="opacity:0.35096154;fill:url(#linearGradient6600);fill-opacity:1;filter:url(#filter6596)" />
  <path
     d="M 192.86534,56.061481 C 192.36173,56.001958 177.04791,71.601258 169.88288,78.655471 C 176.27757,76.632509 187.258,72.858149 188.75784,73.035772 C 190.25845,73.213382 198.81453,79.323493 203.90158,82.70395 C 200.45634,74.408167 193.36963,56.121106 192.86534,56.061481 z M 256.56564,75.679414 C 256.19703,75.470177 226.37543,82.344843 212.67149,85.374045 C 220.32408,85.916589 233.75821,86.605813 234.85605,87.228257 C 235.95576,87.851868 236.78146,95.293021 237.53092,99.511345 C 243.45051,92.092902 256.93475,75.888665 256.56564,75.679414 z M 125.42293,59.592937 C 124.97638,59.705437 130.08281,78.06997 132.18928,86.449319 C 134.88117,82.633972 139.1244,75.81667 140.45346,75.481547 C 141.78428,75.14601 154.86419,77.615692 162.3432,78.86324 C 150.84856,72.862022 125.86977,59.480312 125.42293,59.592937 z M 290.22827,111.27313 C 290.13546,110.99458 257.1852,106.5389 242.18642,104.38604 C 248.17919,107.28669 258.97529,112.18749 259.25143,113.01669 C 259.52792,113.84738 252.26311,119.75777 248.38968,123.20613 C 261.40772,119.49699 290.32106,111.5521 290.22827,111.27313 z M 125.48113,90.005528 C 110.30347,88.587271 77.076206,85.20923 76.857612,85.45104 C 76.63901,85.692911 100.20589,99.814697 110.77468,106.3235 C 108.73772,102.17566 104.66761,94.929258 105.31915,94.208612 C 105.96936,93.48931 118.45677,91.365927 125.48113,90.005528 z M 247.14367,128.41486 C 249.1807,132.56293 253.25058,139.80912 252.59919,140.52974 C 251.94886,141.24904 239.46162,143.37243 232.43729,144.7328 C 247.61504,146.15105 280.8422,149.52911 281.06077,149.2873 C 281.27943,149.04544 257.71247,134.92365 247.14367,128.41486 z M 107.57689,111.87714 C 94.559095,115.58622 65.645568,123.53114 65.738468,123.81028 C 65.83118,124.08875 98.781509,128.54433 113.78023,130.6972 C 107.78763,127.79653 96.991334,122.89566 96.715376,122.06653 C 96.438807,121.23574 103.70368,115.32544 107.57689,111.87714 z M 225.72916,148.289 C 223.03722,152.10435 218.79412,158.92166 217.46494,159.2568 C 216.13407,159.59235 203.05422,157.12265 195.57518,155.87511 C 207.06981,161.87632 232.0487,175.2581 232.49567,175.14539 C 232.94189,175.03294 227.83555,156.66839 225.72916,148.289 z M 118.43579,135.57189 C 112.51623,142.99034 99.032017,159.19458 99.401191,159.40382 C 99.769581,159.61299 129.59124,152.73839 143.29535,149.70918 C 135.64251,149.16662 122.20862,148.4774 121.11055,147.85492 C 120.01096,147.23135 119.18522,139.79024 118.43579,135.57189 z M 186.08383,156.42778 C 179.68914,158.45076 168.70875,162.2251 167.2089,162.04747 C 165.70846,161.86983 157.15205,155.75978 152.06515,152.37921 C 155.51037,160.67499 162.59724,178.96218 163.10148,179.02172 C 163.6049,179.08114 178.91889,163.48205 186.08383,156.42778 z"
     id="path3766"
     style="opacity:1;fill:url(#linearGradient3216);fill-opacity:1" />
  <g
     transform="matrix(1.2433595,-5.6480692e-2,-8.5186357e-3,1.1425318,-55.4332,-219.33549)"
     id="g3512"
     style="enable-background:new">
    <g
       transform="matrix(0.7599177,-1.1926916e-2,0,0.7500728,246.58115,378.18196)"
       id="g3514">
      <g
         transform="matrix(2.8294915,-0.5196682,1.922722,2.7658074,-1390.7458,-622.14861)"
         id="g3516">
        <path
           d="M 191.25,92.09375 C 191.04408,92.103424 190.8485,92.112778 190.65625,92.15625 L 129.21875,107.4375 L 114.875,97.78125 L 114.75,111.625 C 114.72317,115.22359 114.67135,116.89138 116.65625,118.1875 L 166.96875,152.28125 C 167.11015,152.39644 167.26105,152.49407 167.40625,152.59375 C 167.71234,152.80388 168.03774,152.99013 168.375,153.125 C 168.43585,153.14933 168.50027,153.16578 168.5625,153.1875 C 169.41417,153.51124 170.34383,153.61414 171.125,153.4375 L 243.65625,136.9375 C 244.42526,136.76361 244.89932,136.35162 245.0625,135.8125 C 245.22566,135.27339 245.08145,134.58978 244.5625,133.9375 L 195.3125,93.90625 C 194.79354,93.253937 193.99666,92.718422 193.15625,92.40625 C 192.52593,92.17214 191.86777,92.064728 191.25,92.09375 z"
           transform="matrix(0.3165905,8.4742567e-2,-0.2518713,0.3747611,270.47662,187.97058)"
           id="path5539"
           style="opacity:0.5;fill:#000000;fill-opacity:1;filter:url(#filter6542)" />
        <path
           d="M 281.53626,237.15326 L 309.04792,236.5462 C 309.33518,236.5462 309.59444,236.6623 309.78189,236.8505 C 309.96933,237.03871 310.08496,237.29903 310.08496,237.58747 L 315.59103,256.77195 C 315.59103,257.06038 315.4754,257.32069 315.28796,257.5089 C 315.10051,257.69711 314.84125,257.81322 314.55399,257.81322 L 287.42625,257.85531 C 286.85174,257.85531 286.38922,257.3909 286.38922,256.81404 L 280.49923,238.19453 C 280.49923,237.61766 280.96175,237.15326 281.53626,237.15326 z"
           id="path3518"
           style="fill:#8d0000;fill-opacity:1" />
        <path
           d="M 293.04884,250.57475 L 317.14147,250.11423 C 315.07369,251.81667 313.3993,254.18879 313.41979,256.35148 L 288.81484,256.43251 C 286.0145,256.29145 290.73785,250.22017 293.04884,250.57475 z"
           id="path3520"
           style="fill:url(#linearGradient3605);fill-opacity:1" />
        <g
           transform="matrix(0.4446532,4.8226295e-2,-0.1333755,0.1962764,116.26445,175.89592)"
           id="g3522">
          <path
             d="M 473.62579,276.25731 L 523.62044,263.93981"
             id="path3524"
             style="fill:none;fill-opacity:1;fill-rule:evenodd;stroke:url(#linearGradient3607);stroke-width:0.731525;stroke-linecap:butt;stroke-linejoin:miter;stroke-miterlimit:4;stroke-dasharray:none;stroke-opacity:1" />
          <path
             d="M 473.62579,279.2625 L 523.62044,266.945"
             id="path3526"
             style="fill:none;fill-opacity:1;fill-rule:evenodd;stroke:url(#linearGradient3609);stroke-width:0.731525;stroke-linecap:butt;stroke-linejoin:miter;stroke-miterlimit:4;stroke-dasharray:none;stroke-opacity:1" />
          <path
             d="M 473.62579,282.26769 L 523.62044,269.95019"
             id="path3528"
             style="fill:none;fill-opacity:1;fill-rule:evenodd;stroke:url(#linearGradient3611);stroke-width:0.731525;stroke-linecap:butt;stroke-linejoin:miter;stroke-miterlimit:4;stroke-dasharray:none;stroke-opacity:1" />
          <path
             d="M 473.62579,285.27287 L 523.62044,272.95537"
             id="path3530"
             style="fill:none;fill-opacity:1;fill-rule:evenodd;stroke:url(#linearGradient3613);stroke-width:0.731525;stroke-linecap:butt;stroke-linejoin:miter;stroke-miterlimit:4;stroke-dasharray:none;stroke-opacity:1" />
        </g>
        <path
           d="M 297.97117,252.53831 C 301.52552,259.77574 299.81365,262.75273 299.81365,262.75273 C 302.15674,261.43854 303.80178,259.85198 304.40731,257.85976 C 306.10363,259.91709 307.68732,262.00721 311.02425,263.58697 C 311.02425,263.58697 308.17102,256.67636 306.99795,252.72547 L 297.97117,252.53831 z"
           id="path3532"
           style="fill:#0093d9;fill-opacity:1;stroke-width:2" />
        <path
           d="M 284.57789,231.78049 L 311.35381,231.98057 C 312.03942,231.98057 312.59137,232.53252 312.59137,233.21812 L 319.65855,249.0056 C 319.65855,249.6912 319.1066,250.24315 318.42099,250.24315 L 291.3756,249.90132 L 283.34033,233.01804 C 283.34033,232.33244 283.89228,231.78049 284.57789,231.78049 z"
           id="path3534"
           style="fill:url(#linearGradient6436);fill-opacity:1" />
        <path
           d="M 280.11847,237.40712 L 283.64185,232.23159 L 291.38621,249.98696 C 288.0188,251.30318 284.32556,257.42055 287.8134,257.83795 C 286.90613,257.86075 286.55779,257.58155 286.41124,257.06853 L 279.07531,240.02171 C 278.77336,239.36777 279.20359,238.75346 280.11847,237.40712 z"
           id="path3536"
           style="fill:#bc0000;fill-opacity:1" />
        <path
           d="M 284.81403,231.70142 L 310.76827,231.67318 C 311.23825,231.67318 311.61659,232.05154 311.61659,232.52151 C 311.84112,239.11592 297.48249,247.99953 290.73174,248.61015 L 283.9657,232.54975 C 283.9657,232.07978 284.34405,231.70142 284.81403,231.70142 z"
           id="path3538"
           style="opacity:1;fill:url(#radialGradient3615);fill-opacity:1" />
        <path
           d="M 300.57764,261.77315 C 303.1027,260.28877 303.97263,258.02948 304.52297,256.35635 C 304.65197,259.11437 310.6776,263.74511 310.02721,262.13276 C 307.93208,256.93882 307.56927,253.43259 306.81477,253.24246 C 305.71856,252.96623 300.52066,253.10078 299.04126,253.01887 C 300.12656,255.20315 300.84486,257.48247 300.57764,261.77315 z"
           id="path3540"
           style="opacity:0.79901961;fill:url(#radialGradient3617);fill-opacity:1;stroke-width:2" />
        <path
           d="M 319.47279,249.25686 C 319.47279,249.94246 319.11267,250.24441 318.42706,250.24441 L 291.96418,250.69265 L 291.35826,249.84959 C 298.49858,249.63625 310.11914,249.64123 319.47279,249.25686 z"
           id="path3542"
           style="fill:#a70000;fill-opacity:1" />
      </g>
    </g>
  </g>
  <path
     d="M 73.023896,203.62637 L 76.373856,203.62637 C 79.077336,203.62637 81.722056,203.39128 83.896596,202.86234 C 88.421976,201.68691 93.593856,198.51325 93.593856,191.16685 C 93.593856,186.70023 91.654406,183.64411 89.009696,181.99852 C 86.188676,180.23538 82.427306,179.64766 78.313316,179.64766 L 61.916116,179.64766 L 61.916116,181.35203 C 67.087986,181.70466 67.205536,181.82221 67.205536,185.1134 L 67.205536,215.5588 C 67.205536,218.84999 67.087986,218.96754 61.916116,219.32017 L 61.916116,221.02454 L 79.253656,221.02454 L 79.253656,219.32017 C 73.200216,218.96754 73.023896,218.84999 73.023896,215.5588 L 73.023896,203.62637 M 73.023896,183.8792 C 73.023896,182.2336 73.670386,181.70466 77.490516,181.70466 C 83.543956,181.70466 87.246556,185.17218 87.246556,191.57824 C 87.246556,198.92465 82.427306,201.56937 77.372976,201.56937 C 73.905466,201.56937 73.023896,201.45183 73.023896,199.27729 L 73.023896,183.8792 M 131.78952,220.31743 L 131.78952,218.61306 C 127.7343,218.3192 127.38167,218.20165 127.38167,215.20432 L 127.38167,191.16685 L 126.97027,190.81422 L 117.74317,192.2835 L 117.74317,193.75278 L 119.97648,194.04664 C 121.50453,194.28173 121.85716,194.57558 121.85716,196.69135 L 121.85716,209.9149 C 121.85716,211.5605 121.68085,212.85347 121.38699,213.44118 C 120.03525,216.14466 117.21423,217.84903 114.15812,217.84903 C 110.74938,217.84903 108.22221,215.73326 108.22221,211.1491 L 108.22221,191.16685 L 107.81081,190.81422 L 98.583716,192.2835 L 98.583716,193.75278 L 100.81703,194.04664 C 102.34508,194.28173 102.69771,194.57558 102.69771,196.69135 L 102.69771,212.20698 C 102.69771,218.96568 106.69416,221.02268 111.04324,221.02268 C 116.0388,221.02268 120.09403,217.61394 121.79839,216.79115 L 122.38611,220.31743 L 131.78952,220.31743 M 140.94387,221.02268 L 143.29472,218.7306 C 145.35171,219.90603 147.82012,221.02268 152.22796,221.02268 C 160.04454,221.02268 166.86202,217.2613 166.86202,205.27196 C 166.86202,201.62815 166.09799,190.81422 155.51916,190.81422 C 151.05254,190.81422 147.58502,193.69401 145.41049,194.98698 L 145.41049,177.06173 L 144.99909,176.7091 L 135.77199,178.17838 L 135.77199,179.64766 L 138.0053,179.88275 C 139.53335,180.05906 139.88598,180.35292 139.88598,182.58623 L 139.88598,220.55251 L 140.94387,221.02268 M 145.41049,201.45183 C 145.41049,199.98255 145.52803,199.0422 145.9982,198.10186 C 147.40871,195.28084 149.87711,193.98787 153.1683,193.98787 C 155.57792,193.98787 160.74981,195.39839 160.74981,205.62459 C 160.74981,214.26397 158.10509,218.96569 152.28673,218.96569 C 149.17186,218.96569 146.87977,217.37886 145.82189,214.44029 C 145.46926,213.38241 145.41049,212.14821 145.41049,210.7377 L 145.41049,201.45183 M 182.78609,177.06173 L 182.37469,176.7091 L 173.1476,178.17838 L 173.1476,179.64766 L 175.3809,179.88275 C 176.90896,180.05906 177.26159,180.35292 177.26159,182.58623 L 177.26159,215.20432 C 177.26159,218.20165 177.08527,218.3192 172.85374,218.61306 L 172.85374,220.31743 L 187.19394,220.31743 L 187.19394,218.61306 C 183.02118,218.3192 182.78609,218.20165 182.78609,215.20432 L 182.78609,177.06173 M 192.2242,192.2835 L 192.2242,193.75278 L 194.45751,194.04664 C 195.98556,194.28173 196.33819,194.57558 196.33819,196.69135 L 196.33819,215.20432 C 196.33819,218.20165 196.16187,218.3192 191.93034,218.61306 L 191.93034,220.31743 L 206.27055,220.31743 L 206.27055,218.61306 C 202.09778,218.3192 201.8627,218.20165 201.8627,215.20432 L 201.8627,191.16685 L 201.45129,190.81422 L 192.2242,192.2835 M 199.04167,178.29592 C 196.92591,178.29592 195.45662,179.82398 195.45662,181.93975 C 195.45662,183.99674 196.92591,185.46603 199.04167,185.46603 C 201.21621,185.46603 202.56795,183.99674 202.62672,181.93975 C 202.62672,179.82398 201.21621,178.29592 199.04167,178.29592 M 226.74113,217.96657 C 219.74735,217.96657 218.10174,210.67892 218.10174,205.15442 C 218.10174,196.3975 221.56926,192.87121 225.62448,192.87121 C 228.32795,192.87121 230.03233,194.81067 231.20775,197.98432 C 231.56038,198.92466 231.91301,199.51237 233.02966,199.51237 C 234.20509,199.51237 236.49717,198.74834 236.49717,196.51504 C 236.49717,193.81156 232.61826,190.81422 226.27096,190.81422 C 215.57459,190.81422 211.98953,198.39573 211.98953,206.21231 C 211.98953,216.02711 216.80878,221.02268 225.62448,221.02268 C 229.73846,221.02268 235.26298,218.84814 236.90857,212.55961 L 235.2042,211.73681 C 233.38229,215.8508 231.03143,217.96657 226.74113,217.96657 M 260.38109,211.91313 C 260.38109,216.6736 256.73727,217.9078 254.44519,217.9078 C 250.80137,217.9078 249.03822,215.32186 249.03822,211.85435 C 249.03822,209.0921 250.3312,207.68159 253.62239,206.44739 C 255.97324,205.56582 259.08812,204.44917 260.38109,203.62637 L 260.38109,211.91313 M 265.67051,198.6308 C 265.67051,195.22207 264.90647,190.81422 256.03201,190.81422 C 249.39086,190.81422 244.1602,194.28173 244.1602,197.51415 C 244.1602,199.39483 246.33474,200.2764 247.4514,200.2764 C 248.68559,200.2764 249.03822,199.62992 249.33208,198.6308 C 250.62505,194.28173 253.03468,192.87121 255.38553,192.87121 C 257.67761,192.87121 260.38109,194.04665 260.38109,198.74835 L 260.38109,201.21674 C 258.91181,202.7448 253.21098,204.21408 248.56805,205.68336 C 244.33652,206.97633 243.10232,209.9149 243.10232,212.67715 C 243.10232,217.085 246.04089,221.02268 251.56539,221.02268 C 255.20921,220.90514 258.44164,218.7306 260.32232,217.4964 C 261.14512,219.67094 262.08546,221.02268 264.14246,221.02268 C 266.31699,221.02268 268.84416,220.3762 271.07747,219.25954 L 270.72485,217.84903 C 269.90205,218.02534 268.60908,218.14289 267.72751,217.9078 C 266.66962,217.67272 265.67051,216.55606 265.67051,212.85347 L 265.67051,198.6308 M 304.03238,200.15886 C 304.03238,194.22296 300.79995,190.81422 295.39299,190.81422 C 291.04392,190.81422 288.34043,192.92999 284.69661,195.28084 L 283.87381,190.81422 L 275.11688,192.2835 L 275.11688,193.75278 L 277.35019,194.04664 C 278.87824,194.28173 279.23087,194.57558 279.23087,196.69135 L 279.23087,215.20432 C 279.23087,218.20165 279.05456,218.3192 274.82302,218.61306 L 274.82302,220.31743 L 289.16323,220.31743 L 289.16323,218.61306 C 284.99047,218.3192 284.75538,218.20165 284.75538,215.20432 L 284.75538,201.45183 C 284.75538,199.98255 284.87292,199.15975 285.34309,198.2194 C 286.57729,195.92733 289.222,193.98787 292.33688,193.98787 C 296.33333,193.98787 298.50787,196.22118 298.50787,201.33429 L 298.50787,215.20432 C 298.50787,218.20165 298.33155,218.3192 294.10002,218.61306 L 294.10002,220.31743 L 308.44023,220.31743 L 308.44023,218.61306 C 304.26747,218.3192 304.03238,218.20165 304.03238,215.20432 L 304.03238,200.15886"
     id="text2427"
     style="font-size:58.77133179px;font-style:normal;font-variant:normal;font-weight:normal;font-stretch:normal;text-align:start;line-height:125%;writing-mode:lr-tb;text-anchor:start;fill:url(#linearGradient3224);fill-opacity:1;stroke:none;stroke-width:1px;stroke-linecap:butt;stroke-linejoin:miter;stroke-opacity:1;font-family:Utopia;-inkscape-font-specification:Utopia" />
  <text
     x="271.64307"
     y="247.77698"
     id="text2432"
     xml:space="preserve"
     style="font-size:13.46161938px;font-style:normal;font-variant:normal;font-weight:normal;font-stretch:normal;text-align:end;line-height:125%;writing-mode:lr-tb;text-anchor:end;fill:#888a85;fill-opacity:1;stroke:none;stroke-width:1px;stroke-linecap:butt;stroke-linejoin:miter;stroke-opacity:1;font-family:Liberation Sans;-inkscape-font-specification:Liberation Sans"><tspan
       x="271.64307"
       y="247.77698"
       id="tspan2434"
       style="font-size:13.46161938px;font-style:normal;font-variant:normal;font-weight:normal;font-stretch:normal;text-align:end;line-height:125%;letter-spacing:0.44818318;writing-mode:lr-tb;text-anchor:end;fill:#888a85;font-family:Liberation Sans;-inkscape-font-specification:Liberation Sans">BOOK PUBLISHING TOOL</tspan></text>
  <path
     d="M 73.023896,206.82472 L 76.373856,206.82472 C 79.077336,206.82472 81.722056,206.58963 83.896596,206.06069 C 88.421976,204.88526 93.593856,201.7116 93.593856,194.3652 C 93.593856,189.89858 91.654406,186.84246 89.009696,185.19687 C 86.188676,183.43373 82.427306,182.84601 78.313316,182.84601 L 61.916116,182.84601 L 61.916116,184.55038 C 67.087986,184.90301 67.205536,185.02056 67.205536,188.31175 L 67.205536,218.75715 C 67.205536,222.04834 67.087986,222.16589 61.916116,222.51852 L 61.916116,224.22289 L 79.253656,224.22289 L 79.253656,222.51852 C 73.200216,222.16589 73.023896,222.04834 73.023896,218.75715 L 73.023896,206.82472 M 73.023896,187.07755 C 73.023896,185.43195 73.670386,184.90301 77.490516,184.90301 C 83.543956,184.90301 87.246556,188.37053 87.246556,194.77659 C 87.246556,202.123 82.427306,204.76772 77.372976,204.76772 C 73.905466,204.76772 73.023896,204.65018 73.023896,202.47564 L 73.023896,187.07755 M 131.78952,223.51578 L 131.78952,221.81141 C 127.7343,221.51755 127.38167,221.4 127.38167,218.40267 L 127.38167,194.3652 L 126.97027,194.01257 L 117.74317,195.48185 L 117.74317,196.95113 L 119.97648,197.24499 C 121.50453,197.48008 121.85716,197.77393 121.85716,199.8897 L 121.85716,213.11325 C 121.85716,214.75885 121.68085,216.05182 121.38699,216.63953 C 120.03525,219.34301 117.21423,221.04738 114.15812,221.04738 C 110.74938,221.04738 108.22221,218.93161 108.22221,214.34745 L 108.22221,194.3652 L 107.81081,194.01257 L 98.583716,195.48185 L 98.583716,196.95113 L 100.81703,197.24499 C 102.34508,197.48008 102.69771,197.77393 102.69771,199.8897 L 102.69771,215.40533 C 102.69771,222.16403 106.69416,224.22103 111.04324,224.22103 C 116.0388,224.22103 120.09403,220.81229 121.79839,219.9895 L 122.38611,223.51578 L 131.78952,223.51578 M 140.94387,224.22103 L 143.29472,221.92895 C 145.35171,223.10438 147.82012,224.22103 152.22796,224.22103 C 160.04454,224.22103 166.86202,220.45965 166.86202,208.47031 C 166.86202,204.8265 166.09799,194.01257 155.51916,194.01257 C 151.05254,194.01257 147.58502,196.89236 145.41049,198.18533 L 145.41049,180.26008 L 144.99909,179.90745 L 135.77199,181.37673 L 135.77199,182.84601 L 138.0053,183.0811 C 139.53335,183.25741 139.88598,183.55127 139.88598,185.78458 L 139.88598,223.75086 L 140.94387,224.22103 M 145.41049,204.65018 C 145.41049,203.1809 145.52803,202.24055 145.9982,201.30021 C 147.40871,198.47919 149.87711,197.18622 153.1683,197.18622 C 155.57792,197.18622 160.74981,198.59674 160.74981,208.82294 C 160.74981,217.46232 158.10509,222.16404 152.28673,222.16404 C 149.17186,222.16404 146.87977,220.57721 145.82189,217.63864 C 145.46926,216.58076 145.41049,215.34656 145.41049,213.93605 L 145.41049,204.65018 M 182.78609,180.26008 L 182.37469,179.90745 L 173.1476,181.37673 L 173.1476,182.84601 L 175.3809,183.0811 C 176.90896,183.25741 177.26159,183.55127 177.26159,185.78458 L 177.26159,218.40267 C 177.26159,221.4 177.08527,221.51755 172.85374,221.81141 L 172.85374,223.51578 L 187.19394,223.51578 L 187.19394,221.81141 C 183.02118,221.51755 182.78609,221.4 182.78609,218.40267 L 182.78609,180.26008 M 192.2242,195.48185 L 192.2242,196.95113 L 194.45751,197.24499 C 195.98556,197.48008 196.33819,197.77393 196.33819,199.8897 L 196.33819,218.40267 C 196.33819,221.4 196.16187,221.51755 191.93034,221.81141 L 191.93034,223.51578 L 206.27055,223.51578 L 206.27055,221.81141 C 202.09778,221.51755 201.8627,221.4 201.8627,218.40267 L 201.8627,194.3652 L 201.45129,194.01257 L 192.2242,195.48185 M 199.04167,181.49427 C 196.92591,181.49427 195.45662,183.02233 195.45662,185.1381 C 195.45662,187.19509 196.92591,188.66438 199.04167,188.66438 C 201.21621,188.66438 202.56795,187.19509 202.62672,185.1381 C 202.62672,183.02233 201.21621,181.49427 199.04167,181.49427 M 226.74113,221.16492 C 219.74735,221.16492 218.10174,213.87727 218.10174,208.35277 C 218.10174,199.59585 221.56926,196.06956 225.62448,196.06956 C 228.32795,196.06956 230.03233,198.00902 231.20775,201.18267 C 231.56038,202.12301 231.91301,202.71072 233.02966,202.71072 C 234.20509,202.71072 236.49717,201.94669 236.49717,199.71339 C 236.49717,197.00991 232.61826,194.01257 226.27096,194.01257 C 215.57459,194.01257 211.98953,201.59408 211.98953,209.41066 C 211.98953,219.22546 216.80878,224.22103 225.62448,224.22103 C 229.73846,224.22103 235.26298,222.04649 236.90857,215.75796 L 235.2042,214.93516 C 233.38229,219.04915 231.03143,221.16492 226.74113,221.16492 M 260.38109,215.11148 C 260.38109,219.87195 256.73727,221.10615 254.44519,221.10615 C 250.80137,221.10615 249.03822,218.52021 249.03822,215.0527 C 249.03822,212.29045 250.3312,210.87994 253.62239,209.64574 C 255.97324,208.76417 259.08812,207.64752 260.38109,206.82472 L 260.38109,215.11148 M 265.67051,201.82915 C 265.67051,198.42042 264.90647,194.01257 256.03201,194.01257 C 249.39086,194.01257 244.1602,197.48008 244.1602,200.7125 C 244.1602,202.59318 246.33474,203.47475 247.4514,203.47475 C 248.68559,203.47475 249.03822,202.82827 249.33208,201.82915 C 250.62505,197.48008 253.03468,196.06956 255.38553,196.06956 C 257.67761,196.06956 260.38109,197.245 260.38109,201.9467 L 260.38109,204.41509 C 258.91181,205.94315 253.21098,207.41243 248.56805,208.88171 C 244.33652,210.17468 243.10232,213.11325 243.10232,215.8755 C 243.10232,220.28335 246.04089,224.22103 251.56539,224.22103 C 255.20921,224.10349 258.44164,221.92895 260.32232,220.69475 C 261.14512,222.86929 262.08546,224.22103 264.14246,224.22103 C 266.31699,224.22103 268.84416,223.57455 271.07747,222.45789 L 270.72485,221.04738 C 269.90205,221.22369 268.60908,221.34124 267.72751,221.10615 C 266.66962,220.87107 265.67051,219.75441 265.67051,216.05182 L 265.67051,201.82915 M 304.03238,203.35721 C 304.03238,197.42131 300.79995,194.01257 295.39299,194.01257 C 291.04392,194.01257 288.34043,196.12834 284.69661,198.47919 L 283.87381,194.01257 L 275.11688,195.48185 L 275.11688,196.95113 L 277.35019,197.24499 C 278.87824,197.48008 279.23087,197.77393 279.23087,199.8897 L 279.23087,218.40267 C 279.23087,221.4 279.05456,221.51755 274.82302,221.81141 L 274.82302,223.51578 L 289.16323,223.51578 L 289.16323,221.81141 C 284.99047,221.51755 284.75538,221.4 284.75538,218.40267 L 284.75538,204.65018 C 284.75538,203.1809 284.87292,202.3581 285.34309,201.41775 C 286.57729,199.12568 289.222,197.18622 292.33688,197.18622 C 296.33333,197.18622 298.50787,199.41953 298.50787,204.53264 L 298.50787,218.40267 C 298.50787,221.4 298.33155,221.51755 294.10002,221.81141 L 294.10002,223.51578 L 308.44023,223.51578 L 308.44023,221.81141 C 304.26747,221.51755 304.03238,221.4 304.03238,218.40267 L 304.03238,203.35721"
     id="path6354"
     style="font-size:58.77133179px;font-style:normal;font-variant:normal;font-weight:normal;font-stretch:normal;text-align:start;line-height:125%;writing-mode:lr-tb;text-anchor:start;opacity:0.49038463;fill:url(#linearGradient6356);fill-opacity:1;stroke:none;stroke-width:1px;stroke-linecap:butt;stroke-linejoin:miter;stroke-opacity:1;filter:url(#filter6426);font-family:Utopia;-inkscape-font-specification:Utopia" />
  <g
     id="layer1" />
  <g
     id="layer2"
     style="filter:url(#filter6626)" />
</svg>
