<?xml version="1.0" encoding="UTF-8" standalone="no"?>
<!-- Created with Inkscape (http://www.inkscape.org/) -->

<svg
   xmlns:dc="http://purl.org/dc/elements/1.1/"
   xmlns:cc="http://creativecommons.org/ns#"
   xmlns:rdf="http://www.w3.org/1999/02/22-rdf-syntax-ns#"
   xmlns:svg="http://www.w3.org/2000/svg"
   xmlns="http://www.w3.org/2000/svg"
   xmlns:sodipodi="http://sodipodi.sourceforge.net/DTD/sodipodi-0.dtd"
   xmlns:inkscape="http://www.inkscape.org/namespaces/inkscape"
   width="400"
   height="180"
   id="svg2"
   version="1.1"
   inkscape:version="0.48.0 r9654"
   sodipodi:docname="title_logo.svg"
   inkscape:export-filename="/home/rlerch/Desktop/publican-beaker/en-US/images/title_logo.png"
   inkscape:export-xdpi="90"
   inkscape:export-ydpi="90">
  <defs
     id="defs4">
    <inkscape:perspective
       id="perspective10"
       inkscape:persp3d-origin="372.04724 : 350.78739 : 1"
       inkscape:vp_z="744.09448 : 526.18109 : 1"
       inkscape:vp_y="0 : 1000 : 0"
       inkscape:vp_x="0 : 526.18109 : 1"
       sodipodi:type="inkscape:persp3d" />
  </defs>
  <sodipodi:namedview
     id="base"
     pagecolor="#ffffff"
     bordercolor="#666666"
     borderopacity="1.0"
     inkscape:pageopacity="0.0"
     inkscape:pageshadow="2"
     inkscape:zoom="0.7"
     inkscape:cx="292.84877"
     inkscape:cy="-188.3601"
     inkscape:document-units="px"
     inkscape:current-layer="layer1"
     showgrid="false"
     fit-margin-top="0"
     fit-margin-left="0"
     fit-margin-right="0"
     fit-margin-bottom="0"
     inkscape:window-width="1278"
     inkscape:window-height="744"
     inkscape:window-x="1756"
     inkscape:window-y="122"
     inkscape:window-maximized="0" />
  <metadata
     id="metadata7">
    <rdf:RDF>
      <cc:Work
         rdf:about="">
        <dc:format>image/svg+xml</dc:format>
        <dc:type
           rdf:resource="http://purl.org/dc/dcmitype/StillImage" />
        <dc:title></dc:title>
      </cc:Work>
    </rdf:RDF>
  </metadata>
  <g
     inkscape:label="Layer 1"
     inkscape:groupmode="layer"
     id="layer1"
     transform="translate(129.27144,25.715494)">
    <g
       id="layer1-1"
       inkscape:label="Layer 1"
       transform="matrix(2.3763028,0,0,2.3763028,-744.81796,-653.04296)"
       inkscape:export-filename="/home/rlerch/Desktop/publican-beaker/en-US/images/image_left.png"
       inkscape:export-xdpi="89.767586"
       inkscape:export-ydpi="89.767586">
      <g
         transform="translate(145.87685,40.544681)"
         id="g3266">
        <path
           style="fill:#3c6eb4;fill-opacity:1;fill-rule:nonzero;stroke:none;stroke-width:1;marker:none;visibility:visible;display:inline;overflow:visible;enable-background:accumulate"
           d="m 113.15854,235.05634 44.6549,0 c -2.60276,1.5027 -2.93284,4.5657 -2.93284,7.56862 l 0,35.72206 c 0,3.61648 -2.91147,6.52794 -6.52794,6.52794 l -25.73334,0 c -3.61648,0 -6.52794,-2.91146 -6.52794,-6.52794 l 0,-35.72206 c 0,-3.23259 -0.16398,-5.97002 -2.93284,-7.56862 z"
           id="rect3176"
           sodipodi:nodetypes="ccccccccc"
           inkscape:connector-curvature="0" />
        <path
           style="fill:#ffffff;fill-opacity:1;fill-rule:evenodd;stroke:none"
           d="m 116.09375,243.34375 0,3 16.875,0 c 0.54095,0.008 1.03979,-0.28275 1.3125,-0.75 0.27271,-0.46726 0.27271,-1.03275 0,-1.5 -0.27271,-0.46724 -0.77155,-0.75765 -1.3125,-0.75 l -16.875,0 z m 0,8.125 0,3 7.125,0 c 0.54095,0.008 1.03979,-0.28275 1.3125,-0.75 0.27271,-0.46726 0.27271,-1.03275 0,-1.5 -0.27271,-0.46724 -0.77155,-0.75765 -1.3125,-0.75 l -7.125,0 z m 0,8.125 0,3 7.125,0 c 0.54095,0.008 1.03979,-0.28275 1.3125,-0.75 0.27271,-0.46726 0.27271,-1.03275 0,-1.5 -0.27271,-0.46724 -0.77155,-0.75765 -1.3125,-0.75 l -7.125,0 z m 0,8.125 0,3 7.125,0 c 0.54095,0.008 1.03979,-0.28275 1.3125,-0.75 0.27271,-0.46726 0.27271,-1.03275 0,-1.5 -0.27271,-0.46724 -0.77155,-0.75765 -1.3125,-0.75 l -7.125,0 z m 0,8.15625 0,2.46875 c 0,0.17477 0.0179,0.36003 0.0312,0.53125 l 7.09375,0 c 0.54095,0.008 1.03979,-0.28275 1.3125,-0.75 0.27271,-0.46726 0.27271,-1.03275 0,-1.5 -0.27271,-0.46724 -0.77155,-0.75765 -1.3125,-0.75 l -7.125,0 z"
           id="path3224"
           inkscape:connector-curvature="0" />
        <g
           id="g3258"
           transform="translate(0,0.03776248)">
          <path
             id="text3165"
             d="m 129.35049,247.19384 c 0,-0.86396 0.32,-1.72796 0.96,-2.592 0.64,-0.86396 1.36,-1.29596 2.16,-1.296 l 12.144,0 c 2.20798,4e-5 4.11198,0.94404 5.712,2.832 1.63198,1.85604 2.44798,3.93603 2.448,6.24 -2e-5,2.91203 -1.31202,5.16803 -3.936,6.768 2.27198,0.32002 4.01598,1.34402 5.232,3.072 1.08797,1.53602 1.63197,3.42402 1.632,5.664 -3e-5,2.84801 -0.80003,5.34401 -2.4,7.488 -1.79202,2.36801 -4.03202,3.552 -6.72,3.552 l -14.112,0 c -0.8,0 -1.52,-0.256 -2.16,-0.768 -0.64,-0.51199 -0.96,-1.15199 -0.96,-1.92 l 0,-29.04 m 14.112,17.568 -5.904,0 0,7.104 5.856,0 c 1.34398,1e-5 2.41598,-0.36799 3.216,-1.104 0.70398,-0.70399 1.05598,-1.53599 1.056,-2.496 -2e-5,-0.95998 -0.36802,-1.77598 -1.104,-2.448 -0.73602,-0.70398 -1.77602,-1.05598 -3.12,-1.056 m -1.2,-13.68 -4.704,0 0,6.336 5.088,0 c 1.31199,3e-5 1.96798,-0.99197 1.968,-2.976 -2e-5,-0.89597 -0.20802,-1.67997 -0.624,-2.352 -0.41601,-0.67197 -0.99201,-1.00797 -1.728,-1.008"
             style="font-size:48px;font-style:normal;font-variant:normal;font-weight:bold;font-stretch:normal;text-align:start;line-height:100%;writing-mode:lr-tb;text-anchor:start;fill:#ffffff;fill-opacity:1;fill-rule:nonzero;stroke:none;stroke-width:1;marker:none;visibility:visible;display:inline;overflow:visible;enable-background:accumulate;font-family:MgOpen Modata;-inkscape-font-specification:MgOpen Modata Bold"
             inkscape:connector-curvature="0" />
          <path
             d="m 156.98511,265.33784 c 0,-4.38398 1.408,-7.87197 4.224,-10.464 2.52799,-2.33597 5.61599,-3.50397 9.264,-3.504 3.45598,3e-5 6.36798,1.07203 8.736,3.216 2.62397,2.36803 3.93597,5.56802 3.936,9.6 -3e-5,2.40002 -0.80003,3.60002 -2.4,3.6 l -15.168,0 c 0.86399,3.26401 2.91199,4.89601 6.144,4.896 1.15198,10e-6 2.30398,-0.22399 3.456,-0.672 1.02398,-0.38399 1.79198,-0.83199 2.304,-1.344 0.73598,-0.76799 1.53598,-1.15199 2.4,-1.152 0.83197,10e-6 1.55197,0.33601 2.16,1.008 0.60797,0.67201 0.91197,1.48801 0.912,2.448 -3e-5,1.56801 -0.84803,2.91201 -2.544,4.032 -2.49602,1.664 -5.31202,2.496 -8.448,2.496 -4.00001,0 -7.44001,-1.24799 -10.32,-3.744 -3.104,-2.71999 -4.656,-6.19199 -4.656,-10.416 m 8.4,-3.072 10.176,0 c -0.38402,-1.43998 -1.07202,-2.57598 -2.064,-3.408 -0.86402,-0.73597 -1.85602,-1.10397 -2.976,-1.104 -1.15201,3e-5 -2.17601,0.38403 -3.072,1.152 -0.99201,0.80002 -1.68001,1.92002 -2.064,3.36"
             style="font-size:48px;font-style:normal;font-variant:normal;font-weight:bold;font-stretch:normal;text-align:start;line-height:100%;writing-mode:lr-tb;text-anchor:start;fill:#b3b3b3;fill-opacity:1;fill-rule:nonzero;stroke:none;stroke-width:1;marker:none;visibility:visible;display:inline;overflow:visible;enable-background:accumulate;font-family:MgOpen Modata;-inkscape-font-specification:MgOpen Modata Bold"
             id="path3209"
             inkscape:connector-curvature="0" />
          <path
             d="m 196.99411,251.32184 c 0.89598,3e-5 1.99998,0.30403 3.312,0.912 1.15198,0.54403 2.12798,1.16803 2.928,1.872 0.63998,-1.85597 1.88798,-2.78397 3.744,-2.784 0.99197,3e-5 1.85597,0.35203 2.592,1.056 0.73597,0.70403 1.10397,1.68003 1.104,2.928 l 0,21.648 c -3e-5,0.83201 -0.38403,1.472 -1.152,1.92 -0.73603,0.448 -1.63203,0.672 -2.688,0.672 -1.02402,0 -1.92002,-0.224 -2.688,-0.672 -0.76802,-0.448 -1.15202,-1.07199 -1.152,-1.872 -1.98402,1.664 -4.12802,2.496 -6.432,2.496 -3.74401,0 -6.72001,-1.47199 -8.928,-4.416 -2.016,-2.65599 -3.024,-5.88799 -3.024,-9.696 0,-3.80798 1.024,-7.02397 3.072,-9.648 2.27199,-2.94397 5.37599,-4.41597 9.312,-4.416 m 0.624,7.776 c -1.76001,2e-5 -3.15201,0.64002 -4.176,1.92 -0.89601,1.12002 -1.34401,2.52802 -1.344,4.224 -1e-5,1.76002 0.47999,3.28001 1.44,4.56 1.05599,1.37601 2.46399,2.06401 4.224,2.064 1.66398,1e-5 2.99198,-0.65599 3.984,-1.968 0.89598,-1.21599 1.34398,-2.68798 1.344,-4.416 -2e-5,-1.72798 -0.48002,-3.21598 -1.44,-4.464 -0.96002,-1.27998 -2.30402,-1.91998 -4.032,-1.92"
             style="font-size:48px;font-style:normal;font-variant:normal;font-weight:bold;font-stretch:normal;text-align:start;line-height:100%;writing-mode:lr-tb;text-anchor:start;fill:#b3b3b3;fill-opacity:1;fill-rule:nonzero;stroke:none;stroke-width:1;marker:none;visibility:visible;display:inline;overflow:visible;enable-background:accumulate;font-family:MgOpen Modata;-inkscape-font-specification:MgOpen Modata Bold"
             id="path3205"
             inkscape:connector-curvature="0" />
          <path
             id="path3201"
             d="m 221.06159,247.33784 0.048,13.152 7.872,-7.872 c 0.83198,-0.83197 1.79198,-1.24797 2.88,-1.248 1.05598,3e-5 1.98398,0.36803 2.784,1.104 0.79998,0.73603 1.19997,1.58403 1.2,2.544 -3e-5,0.86403 -0.35202,1.66403 -1.056,2.4 l -6.192,6.192 7.152,8.784 c 0.67197,0.86401 1.00797,1.77601 1.008,2.736 -3e-5,1.05601 -0.35203,1.96801 -1.056,2.736 -0.70402,0.736 -1.55202,1.104 -2.544,1.104 -1.28002,0 -2.46402,-0.67199 -3.552,-2.016 l -8.496,-10.656 0,8.4 c -1e-5,1.31201 -0.40001,2.35201 -1.2,3.12 -0.80001,0.768 -1.74401,1.152 -2.832,1.152 -1.02401,0 -1.888,-0.352 -2.592,-1.056 -0.8,-0.79999 -1.2,-1.90399 -1.2,-3.312 l 0,-27.264 c 0,-1.24796 0.384,-2.22396 1.152,-2.928 0.768,-0.70396 1.67999,-1.05596 2.736,-1.056 1.05599,4e-5 1.96799,0.35204 2.736,1.056 0.76799,0.70404 1.15199,1.68004 1.152,2.928"
             style="font-size:48px;font-style:normal;font-variant:normal;font-weight:bold;font-stretch:normal;text-align:start;line-height:100%;writing-mode:lr-tb;text-anchor:start;fill:#b3b3b3;fill-opacity:1;fill-rule:nonzero;stroke:none;stroke-width:1;marker:none;visibility:visible;display:inline;overflow:visible;enable-background:accumulate;font-family:MgOpen Modata;-inkscape-font-specification:MgOpen Modata Bold"
             inkscape:connector-curvature="0" />
          <path
             d="m 235.36732,265.33784 c 0,-4.38398 1.408,-7.87197 4.224,-10.464 2.52799,-2.33597 5.61599,-3.50397 9.264,-3.504 3.45598,3e-5 6.36798,1.07203 8.736,3.216 2.62397,2.36803 3.93597,5.56802 3.936,9.6 -3e-5,2.40002 -0.80003,3.60002 -2.4,3.6 l -15.168,0 c 0.86399,3.26401 2.91199,4.89601 6.144,4.896 1.15198,10e-6 2.30398,-0.22399 3.456,-0.672 1.02398,-0.38399 1.79198,-0.83199 2.304,-1.344 0.73598,-0.76799 1.53598,-1.15199 2.4,-1.152 0.83197,10e-6 1.55197,0.33601 2.16,1.008 0.60797,0.67201 0.91197,1.48801 0.912,2.448 -3e-5,1.56801 -0.84803,2.91201 -2.544,4.032 -2.49602,1.664 -5.31202,2.496 -8.448,2.496 -4.00001,0 -7.44001,-1.24799 -10.32,-3.744 -3.104,-2.71999 -4.656,-6.19199 -4.656,-10.416 m 8.4,-3.072 10.176,0 c -0.38402,-1.43998 -1.07202,-2.57598 -2.064,-3.408 -0.86402,-0.73597 -1.85602,-1.10397 -2.976,-1.104 -1.15201,3e-5 -2.17601,0.38403 -3.072,1.152 -0.99201,0.80002 -1.68001,1.92002 -2.064,3.36"
             style="font-size:48px;font-style:normal;font-variant:normal;font-weight:bold;font-stretch:normal;text-align:start;line-height:100%;writing-mode:lr-tb;text-anchor:start;fill:#b3b3b3;fill-opacity:1;fill-rule:nonzero;stroke:none;stroke-width:1;marker:none;visibility:visible;display:inline;overflow:visible;enable-background:accumulate;font-family:MgOpen Modata;-inkscape-font-specification:MgOpen Modata Bold"
             id="path3199"
             inkscape:connector-curvature="0" />
          <path
             id="text3179"
             d="m 263.37694,255.06584 c 0,-1.21597 0.352,-2.14397 1.056,-2.784 0.608,-0.57597 1.39199,-0.86397 2.352,-0.864 1.02399,3e-5 1.91999,0.28803 2.688,0.864 0.83199,0.67203 1.24799,1.50403 1.248,2.496 1.63199,-2.14397 3.67999,-3.21597 6.144,-3.216 0.89598,3e-5 1.67998,0.49603 2.352,1.488 0.70398,0.96003 1.05598,1.90403 1.056,2.832 -2e-5,1.37603 -0.83202,2.43203 -2.496,3.168 -1.53602,0.57602 -3.07201,1.15202 -4.608,1.728 -1.63201,0.83202 -2.44801,2.06402 -2.448,3.696 l 0,11.136 c -10e-6,1.21601 -0.38401,2.17601 -1.152,2.88 -0.73601,0.704 -1.61601,1.056 -2.64,1.056 -0.99201,0 -1.808,-0.32 -2.448,-0.96 -0.736,-0.70399 -1.104,-1.69599 -1.104,-2.976 l 0,-20.544"
             style="font-size:48px;font-style:normal;font-variant:normal;font-weight:bold;font-stretch:normal;text-align:start;line-height:100%;writing-mode:lr-tb;text-anchor:start;fill:#b3b3b3;fill-opacity:1;fill-rule:nonzero;stroke:none;stroke-width:1;marker:none;visibility:visible;display:inline;overflow:visible;enable-background:accumulate;font-family:MgOpen Modata;-inkscape-font-specification:MgOpen Modata Bold"
             inkscape:connector-curvature="0" />
        </g>
      </g>
    </g>
  </g>
</svg>
